<svg id="Layer_1" data-name="Layer 1" xmlns="http://www.w3.org/2000/svg" viewBox="0 0 1033 826"><defs><style>.cls-1,.cls-30{fill:#2db9ac;}.cls-2{fill:#309293;}.cls-11,.cls-12,.cls-13,.cls-15,.cls-16,.cls-17,.cls-19,.cls-20,.cls-21,.cls-22,.cls-24,.cls-25,.cls-26,.cls-27,.cls-3,.cls-42,.cls-6,.cls-61,.cls-62,.cls-63{isolation:isolate;}.cls-4,.cls-6{font-size:30.45px;fill:#e5e5e5;}.cls-4,.cls-6,.cls-64,.cls-65,.cls-72{font-family:Amatic-Bold, Amatic;font-weight:700;}.cls-5{fill:#edcc40;}.cls-18,.cls-23,.cls-28,.cls-30,.cls-5,.cls-7,.cls-8{stroke:#d8d6d6;}.cls-10,.cls-14,.cls-18,.cls-23,.cls-28,.cls-29,.cls-30,.cls-36,.cls-46,.cls-5,.cls-55,.cls-56,.cls-7,.cls-8,.cls-9{stroke-miterlimit:10;}.cls-5,.cls-7{stroke-width:1.4px;}.cls-7{fill:#7c2ad3;}.cls-8{fill:#11cc46;stroke-width:1.36px;}.cls-10,.cls-14,.cls-46,.cls-55,.cls-9{fill:none;}.cls-29,.cls-9{stroke:#e0e0e0;}.cls-9{stroke-width:14px;}.cls-10{stroke:#f4f4f4;stroke-width:3.09px;}.cls-11{font-size:32.46px;}.cls-11,.cls-12,.cls-13,.cls-15,.cls-16,.cls-17,.cls-19,.cls-20,.cls-21,.cls-22,.cls-24,.cls-25,.cls-26,.cls-27{fill:#f9f9f9;}.cls-11,.cls-12,.cls-13,.cls-15,.cls-16,.cls-17,.cls-19,.cls-20,.cls-21,.cls-22,.cls-24,.cls-25,.cls-26,.cls-27,.cls-61,.cls-62,.cls-63,.cls-67,.cls-70,.cls-71{font-family:PatrickHandSC-Regular, Patrick Hand SC;}.cls-12{font-size:10.92px;}.cls-13{font-size:12.84px;}.cls-14{stroke:#4aa3a5;stroke-width:3.54px;}.cls-15{font-size:33.38px;}.cls-16{font-size:13.2px;}.cls-17{font-size:12.19px;}.cls-18,.cls-60{fill:#dd242d;}.cls-18{stroke-width:1.39px;}.cls-19,.cls-20{font-size:33.07px;}.cls-19{letter-spacing:-0.05em;}.cls-21{font-size:13.08px;}.cls-22{font-size:9.51px;}.cls-23,.cls-28{fill:#2090ce;}.cls-23{stroke-width:1.4px;}.cls-24{font-size:33.47px;}.cls-25{font-size:13.24px;}.cls-26{font-size:11.94px;}.cls-27{font-size:11.12px;}.cls-28{stroke-width:1.44px;}.cls-29,.cls-47,.cls-56,.cls-61,.cls-62,.cls-63{fill:#fff;}.cls-30{stroke-width:2px;}.cls-31{fill:#eae8ea;}.cls-32,.cls-42{fill:#d9d9d9;}.cls-33{fill:#d3a583;}.cls-34{fill:#f5f5f5;}.cls-35{fill:#63a5db;}.cls-36{fill:#5baff4;stroke:#56a5db;stroke-width:0.33px;}.cls-37{fill:#37393a;}.cls-38{fill:#2a2e2f;}.cls-39{fill:#caa27e;}.cls-40{fill:#cecece;}.cls-41{fill:#cca176;}.cls-42{opacity:0.2;}.cls-43{fill:#252525;}.cls-44{fill:#050505;}.cls-45{fill:#020101;}.cls-46{stroke:#1f3030;stroke-width:2.02px;}.cls-48{fill:#f29814;}.cls-49{fill:#ecbd13;}.cls-50{fill:#49ccea;}.cls-51{fill:#5fbf32;}.cls-52{fill:#ff7415;}.cls-53{fill:#e0e0e0;}.cls-54{fill:#d61561;}.cls-55,.cls-56{stroke:#fff;stroke-width:2.98px;}.cls-57{fill:#9f1fdb;}.cls-58{fill:#ea1f33;}.cls-59{fill:#6d131c;}.cls-61,.cls-62,.cls-63{font-size:14.88px;}.cls-61{letter-spacing:-0.04em;}.cls-62{letter-spacing:-0.06em;}.cls-64{font-size:130.75px;}.cls-64,.cls-65,.cls-67,.cls-68,.cls-69,.cls-70,.cls-71,.cls-72{fill:#fcfcfc;}.cls-65,.cls-68,.cls-70{font-size:39.12px;}.cls-66{letter-spacing:-0.02em;}.cls-67{font-size:27.48px;}.cls-68,.cls-69{font-family:AmaticSC-Regular, Amatic SC;}.cls-69{font-size:26.67px;}.cls-71{font-size:31.04px;}.cls-72{font-size:28.98px;}.cls-73{letter-spacing:-0.01em;}.cls-74{letter-spacing:0em;}</style></defs><title>elementstyletile</title><rect class="cls-1" y="129" width="1033" height="703"/><rect class="cls-2" width="1033" height="130"/><rect class="cls-2" x="47" y="227" width="71" height="68"/><g class="cls-3"><text class="cls-4" transform="translate(61 324.98)">309293</text></g><rect class="cls-5" x="147" y="227" width="71" height="68"/><g class="cls-3"><text class="cls-6" transform="translate(158.9 324.98)">EC</text><text class="cls-6" transform="translate(179.52 324.98)">B</text><text class="cls-6" transform="translate(189.06 324.98)">D13</text></g><rect class="cls-7" x="250" y="227" width="71" height="68"/><g class="cls-3"><text class="cls-4" transform="translate(260.56 324.98)">7C2AD3</text></g><rect class="cls-8" x="353" y="227" width="71" height="68"/><g class="cls-3"><text class="cls-4" transform="translate(367.44 325.59)">11CC46</text></g><line class="cls-9" y1="139" x2="1033" y2="139"/><line class="cls-10" x1="0.5" y1="190.73" x2="480.5" y2="190.73"/><line class="cls-10" x1="1" y1="492.5" x2="481" y2="492.5"/><line class="cls-10" x1="550.5" y1="190.73" x2="1030.5" y2="190.73"/><line class="cls-10" x1="560.45" y1="493" x2="1032.45" y2="493"/><g id="Layer_2" data-name="Layer 2"><g id="Layer_1-2" data-name="Layer 1-2"><rect class="cls-8" x="922.28" y="535.28" width="69.72" height="83.29"/><text class="cls-11" transform="translate(946.24 588.46)">Al</text><text class="cls-12" transform="translate(927.68 549.09)">13</text><text class="cls-13" transform="translate(946.42 615.27)">26.98</text></g></g><circle class="cls-14" cx="28.98" cy="512.63" r="10.45"/><circle class="cls-14" cx="92.33" cy="548.95" r="10.45"/><circle class="cls-14" cx="92.33" cy="622.49" r="10.45"/><circle class="cls-14" cx="154.24" cy="513.99" r="10.45"/><circle class="cls-14" cx="217.15" cy="548.95" r="10.45"/><circle class="cls-14" cx="217.15" cy="622.49" r="10.45"/><circle class="cls-14" cx="154.24" cy="657.86" r="10.45"/><circle class="cls-14" cx="278.73" cy="513.99" r="10.45"/><circle class="cls-14" cx="342.54" cy="548.95" r="10.45"/><circle class="cls-14" cx="342.54" cy="622.49" r="10.45"/><circle class="cls-14" cx="278.73" cy="657.86" r="10.45"/><circle class="cls-14" cx="155.34" cy="730.95" r="10.45"/><circle class="cls-14" cx="217.15" cy="766.66" r="10.45"/><circle class="cls-14" cx="280.47" cy="730.95" r="10.45"/><circle class="cls-14" cx="342.54" cy="766.66" r="10.45"/><circle class="cls-14" cx="405.61" cy="657.86" r="10.45"/><circle class="cls-14" cx="405.61" cy="730.95" r="10.45"/><circle class="cls-14" cx="455.55" cy="760.35" r="10.45"/><line class="cls-14" x1="39" y1="519.79" x2="84.83" y2="545.01"/><line class="cls-14" x1="102.78" y1="543.71" x2="143.79" y2="518.62"/><line class="cls-14" x1="92.33" y1="559.4" x2="92.11" y2="612.02"/><line class="cls-14" x1="101.17" y1="628.4" x2="144.86" y2="653.26"/><line class="cls-14" x1="164.69" y1="518.34" x2="207.38" y2="545.23"/><line class="cls-14" x1="217.15" y1="559.4" x2="217.15" y2="612.02"/><line class="cls-14" x1="226.01" y1="628.02" x2="270.33" y2="654.94"/><line class="cls-14" x1="225.89" y1="543.21" x2="268.28" y2="518.55"/><line class="cls-14" x1="289.18" y1="519.32" x2="333.21" y2="544.23"/><line class="cls-14" x1="342.54" y1="559.4" x2="342.54" y2="612.04"/><line class="cls-14" x1="333.14" y1="627.07" x2="289.18" y2="654.26"/><line class="cls-14" x1="351.48" y1="627.88" x2="396.84" y2="652.18"/><line class="cls-14" x1="405.61" y1="668.31" x2="405.61" y2="720.5"/><line class="cls-14" x1="414.25" y1="735.07" x2="445.09" y2="755.04"/><line class="cls-14" x1="352.09" y1="762.41" x2="396.99" y2="736.85"/><line class="cls-14" x1="333.13" y1="762.1" x2="289.18" y2="736.72"/><line class="cls-14" x1="270.02" y1="737.06" x2="227.61" y2="762.29"/><line class="cls-14" x1="164.69" y1="738.02" x2="208.73" y2="762.29"/><line class="cls-14" x1="155.29" y1="721.38" x2="154.24" y2="668.31"/><line class="cls-14" x1="278.79" y1="666.73" x2="278.79" y2="722.13"/><line class="cls-14" x1="209.28" y1="627.83" x2="164.96" y2="653.41"/><g id="Layer_2-2" data-name="Layer 2-2"><g id="Layer_1-2-2" data-name="Layer 1-2-2"><rect class="cls-7" x="843.31" y="535.31" width="71.69" height="85.64"/><text class="cls-15" transform="translate(864.97 588.28)">He</text><text class="cls-16" transform="translate(868.28 615.28)">4.00</text><text class="cls-17" transform="translate(847.45 549.15) scale(1.08 1)">2</text></g></g><g id="Layer_2-3" data-name="Layer 2-3"><g id="Layer_1-2-3" data-name="Layer 1-2-3"><rect class="cls-18" x="760.15" y="536.15" width="71.03" height="84.85"/><text class="cls-19" transform="translate(784.3 589.61)">F</text><text class="cls-20" transform="translate(798.45 589.61)">e</text><text class="cls-21" transform="translate(785 615.66)">55.93</text><text class="cls-22" transform="translate(766.58 548.29)">26</text></g></g><g id="Layer_2-4" data-name="Layer 2-4"><g id="Layer_1-2-4" data-name="Layer 1-2-4"><rect class="cls-23" x="676.15" y="535.15" width="71.9" height="85.89"/><text class="cls-24" transform="translate(701.46 590)">O</text><text class="cls-25" transform="translate(700.25 616.25)">15.99</text><text class="cls-26" transform="translate(681.75 548.84)">8</text></g></g><g id="Layer_2-5" data-name="Layer 2-5"><g id="Layer_1-2-5" data-name="Layer 1-2-5"><rect class="cls-5" x="588.3" y="535.3" width="71.7" height="85.66"/><text class="cls-15" transform="translate(617.44 590.2) rotate(1.2)">K</text><text class="cls-27" transform="translate(597.23 549.27)">19</text><text class="cls-16" transform="translate(614.69 616.68)">39.10</text></g></g><rect class="cls-18" x="47" y="340" width="71" height="68"/><g class="cls-3"><text class="cls-6" transform="translate(56 436.98)">D</text><text class="cls-6" transform="translate(67.69 436.98)">D242D</text></g><rect class="cls-28" x="147" y="340" width="71" height="68"/><g class="cls-3"><text class="cls-4" transform="translate(161.9 434.98)">2090CE</text></g><rect class="cls-29" x="250" y="340" width="71" height="68"/><g class="cls-3"><text class="cls-4" transform="translate(266.56 437.98)">FFFFFF</text></g><rect class="cls-30" x="353" y="340" width="71" height="68"/><g class="cls-3"><text class="cls-4" transform="translate(362.56 436.98)">2DB9AC</text></g><g id="Layer_2-6" data-name="Layer 2-6"><g id="Layer_1-2-6" data-name="Layer 1-2-6"><path class="cls-31" d="M536,509.42a83.31,83.31,0,0,0,7.53-3.62,85.53,85.53,0,0,0,8.52-5.32,19.87,19.87,0,0,1-3,12.67,12.16,12.16,0,0,0,5-.38,12.39,12.39,0,0,0,6-3.94,19.25,19.25,0,0,1-5.33,16.89,29.47,29.47,0,0,0,9.65-3.68,20.07,20.07,0,0,1-1.71,12,20.77,20.77,0,0,1-12.32,10.55Z"/><path class="cls-31" d="M494.06,510.32a83.31,83.31,0,0,1-7.53-3.62,85.53,85.53,0,0,1-8.54-5.35,19.87,19.87,0,0,0,3,12.7,12.16,12.16,0,0,1-4.93-.38,12.39,12.39,0,0,1-5.94-3.94,19.25,19.25,0,0,0,5.33,16.89,29.47,29.47,0,0,1-9.65-3.68,20.07,20.07,0,0,0,1.57,11.92,20.77,20.77,0,0,0,12.32,10.55Z"/><path class="cls-32" d="M477.87,620.68l-.23,135.69h76.9V594.27H531.86l-19.33,56.11-14.42-56.11H477.64l-19.92,21-33.2-26.56L416.78,607l41.5,36.52Z"/><ellipse class="cls-33" cx="514.47" cy="540.61" rx="35.79" ry="43.61"/><polygon class="cls-34" points="497.46 593.99 487.47 616.18 497.56 616.14 492.54 622.22 512.53 650.38 497.46 593.99"/><path class="cls-34" d="M531.76,594l10,22.19-10.09,0,5,6.08-24.14,28.16Z"/><polygon class="cls-35" points="498.11 594.26 512.53 650.38 531.86 594.26 498.11 594.26"/><path class="cls-36" d="M500.86,588.73l-2.75,5.53,6.83,8.09,9.61-5.87,8.7,6.07,8.6-8.28-3.78-5.53Z"/><path class="cls-37" d="M512,594.91l-.72,38.42,2.5,3.43,2.78-3.51.31-38Z"/><path class="cls-38" d="M514.69,590.3l-4.19,3.78,1.73,2.49,2.06,3,4.15-5.3Z"/><path class="cls-39" d="M417.73,605.57a9.48,9.48,0,0,1-6.29,1.27c-5.07-.93-9.39-6.9-7.78-11.87,1.22-3.75,5.27-5.25,6-5.49a2.81,2.81,0,0,1-1.82-3,2.75,2.75,0,0,1,1.77-2.12,7.38,7.38,0,0,1,3.32-.9c4.1,0,8.13,3.7,10.22,9.32Z"/><path class="cls-31" d="M508.56,523.58l-1.54,3a33.45,33.45,0,0,0-18-3.44l.49-3A45.88,45.88,0,0,1,508.56,523.58Z"/><polygon class="cls-40" points="477.87 620.68 477.64 594.26 457.72 615.29 424.53 588.74 416.78 606.99 458.28 643.5 477.87 620.68"/><polygon class="cls-41" points="507.79 583.44 507.79 588.74 522.43 588.74 522.43 583.12 507.79 583.44"/><path d="M550.94,531.93h-7a12.84,12.84,0,0,0-23-.92q-5.88-5-12.11.06a12.84,12.84,0,0,0-23,.88h-7v3.91h6a12.83,12.83,0,0,0,25.53,2.58q.06-.61.06-1.23a12.88,12.88,0,0,0-.36-3,8.1,8.1,0,0,1,9.7,0A12.83,12.83,0,1,0,545,535.85h6v-3.92ZM497.58,546.5a9.31,9.31,0,1,1,9.31-9.32,9.31,9.31,0,0,1-9.31,9.32Zm34.63,0a9.31,9.31,0,1,1,9.31-9.31h0A9.31,9.31,0,0,1,532.21,546.5Z"/><path class="cls-31" d="M535.92,557.06a.43.43,0,0,0-.5,0,9.3,9.3,0,0,1-11-.77h0a6,6,0,0,0-9.32,1.07,6,6,0,0,0-9.3-1.06h0a9.3,9.3,0,0,1-11,.76.43.43,0,0,0-.61.54c4.62,10.49,16.34,8.94,16.34,8.94a6,6,0,0,0,4.57-2.75,6,6,0,0,0,4.58,2.75S531.4,568,536,557.55A.42.42,0,0,0,535.92,557.06Z"/><ellipse class="cls-42" cx="517.07" cy="802.96" rx="60.93" ry="8.81"/><rect class="cls-34" x="480.13" y="691.23" width="27.65" height="6.28"/><circle class="cls-34" cx="517.9" cy="708.59" r="1.67"/><circle class="cls-34" cx="517.9" cy="720.13" r="1.67"/><circle class="cls-34" cx="517.9" cy="696.47" r="1.67"/><polygon class="cls-40" points="513.2 756.37 512.37 650.13 515.99 678.39 515.99 756.37 513.2 756.37"/><rect class="cls-43" x="488.19" y="756.37" width="16.74" height="37.79"/><rect class="cls-43" x="531.33" y="756.37" width="16.74" height="37.79"/><path class="cls-44" d="M531.33,794.18v8.57h5.74l1.57-4.28,3.91,4.28L558,802.3l-.33-3.83-9.13-4.29Z"/><path class="cls-44" d="M504.94,794.18v8.57H499.2l-1.57-4.28-3.91,4.28-15.48-.45.33-3.83,9.13-4.28Z"/><path class="cls-31" d="M520.58,523.58l1.54,3a33.45,33.45,0,0,1,18-3.44l-.49-3a45.88,45.88,0,0,0-19,3.38Z"/><circle class="cls-45" cx="493.16" cy="533.84" r="4.4"/><circle class="cls-45" cx="528.18" cy="533.84" r="4.4"/><line class="cls-46" x1="408.7" y1="589.58" x2="351.99" y2="532.87"/><rect class="cls-47" x="518.27" y="646.8" width="17.85" height="3.83" rx="1.75" ry="1.75"/><rect class="cls-47" x="530.91" y="648.38" width="3.6" height="11.54" rx="1.72" ry="1.72"/><path class="cls-47" d="M513.37,691h0a1.73,1.73,0,0,0,2.24-1.32l8.83-31.1a2.22,2.22,0,0,0-1.11-2.66h0a1.73,1.73,0,0,0-2.24,1.32l-8.83,31.12A2.22,2.22,0,0,0,513.37,691Z"/><rect class="cls-47" x="512.12" y="686.8" width="30.83" height="4.6" rx="2.11" ry="2.11"/><path class="cls-47" d="M541.9,691h0a1.69,1.69,0,0,1-2.13-1.08v-.15l-8.56-30.17a2.17,2.17,0,0,1,1.12-2.6h0a1.69,1.69,0,0,1,2.22,1.26l8.56,30.17A2.17,2.17,0,0,1,541.9,691Z"/><path class="cls-48" d="M522.33,670.6h10.44l4.35,15.16H517.93Z"/><rect class="cls-47" x="520.93" y="648.49" width="3.69" height="11.01" rx="1.84" ry="1.84"/><path class="cls-39" d="M534.5,664.53a7.7,7.7,0,0,1-4.35,3c-4.09.94-9.22-2.17-9.61-6.36-.3-3.2,2.25-5.6,2.69-6a2.28,2.28,0,0,1-2.3-1.62,2.23,2.23,0,0,1,.64-2.17,6,6,0,0,1,2.25-1.75c3-1.33,7.25.16,10.61,3.69Z"/><path class="cls-40" d="M554.54,594.27a221.68,221.68,0,0,1,14,36.48A230.55,230.55,0,0,1,575,660.67l-40.86,7.87v-15.7l20.11-5.48Z"/><ellipse class="cls-47" cx="530.05" cy="673.87" rx="2.33" ry="2.35"/><ellipse class="cls-48" cx="530.05" cy="673.87" rx="1.25" ry="1.27"/><ellipse class="cls-47" cx="524.98" cy="678.22" rx="1.61" ry="1.62"/><ellipse class="cls-48" cx="524.98" cy="678.22" rx="0.87" ry="0.88"/></g></g><g id="Layer_2-7" data-name="Layer 2-7"><path class="cls-47" d="M32.36,723.24h0a1.47,1.47,0,0,1,1.47,1.47v46.35a1.47,1.47,0,0,1-1.47,1.47h0a1.47,1.47,0,0,1-1.47-1.47V724.71a1.47,1.47,0,0,1,1.47-1.47Z"/><path class="cls-47" d="M54.6,723.24h0a1.47,1.47,0,0,1,1.47,1.47v46.35a1.47,1.47,0,0,1-1.47,1.47h0a1.47,1.47,0,0,1-1.47-1.47V724.71a1.47,1.47,0,0,1,1.47-1.47Z"/><path class="cls-47" d="M95.35,723.24h0a1.47,1.47,0,0,1,1.47,1.47v46.35a1.47,1.47,0,0,1-1.47,1.47h0a1.47,1.47,0,0,1-1.47-1.47V724.71a1.47,1.47,0,0,1,1.47-1.47Z"/><path class="cls-47" d="M123.54,723.24h0a1.47,1.47,0,0,1,1.47,1.47v46.35a1.47,1.47,0,0,1-1.47,1.47h0a1.47,1.47,0,0,1-1.47-1.47V724.71a1.47,1.47,0,0,1,1.47-1.47Z"/><rect class="cls-47" x="30.9" y="722.5" width="94.11" height="4.4"/><path class="cls-47" d="M205,681.48h35.49a3.91,3.91,0,0,1,3.91,3.91h0a3.91,3.91,0,0,1-3.91,3.91H205a3.91,3.91,0,0,1-3.91-3.91h0A3.91,3.91,0,0,1,205,681.48Z"/><path class="cls-1" d="M216.75,689.52v14.54l-21,58.68,56.25.19-20.38-59-.1-14.37Z"/><rect class="cls-47" x="231.77" y="684.7" width="8.25" height="23.56" rx="3.94" ry="3.94"/><path class="cls-47" d="M213.38,700.08h0a4.28,4.28,0,0,1,2.69,5.42h0L194.65,769a4.28,4.28,0,0,1-5.42,2.69h0a4.28,4.28,0,0,1-2.69-5.42h0l21.42-63.49a4.28,4.28,0,0,1,5.42-2.69Z"/><path class="cls-47" d="M190.89,763.15h65.39a4.69,4.69,0,0,1,4.69,4.69h0a4.69,4.69,0,0,1-4.69,4.69H190.89a4.69,4.69,0,0,1-4.69-4.69h0a4.69,4.69,0,0,1,4.69-4.69Z"/><rect class="cls-47" x="242.66" y="698.75" width="8.37" height="75.5" rx="4.01" ry="4.01" transform="translate(-222.45 117.53) rotate(-18.64)"/><path class="cls-49" d="M209.86,729.25h28.55L248.33,761l-48.61-.31Z"/><rect class="cls-47" x="207.55" y="684.92" width="8.95" height="22.48" rx="4.11" ry="4.11"/><rect class="cls-47" x="146.64" y="623.81" width="28.5" height="5.35" rx="2.62" ry="2.62"/><path class="cls-1" d="M156.45,629.31v10L143.1,679.42l35.71.13-12.94-40.39-.07-9.83Z"/><rect class="cls-47" x="166.82" y="626.02" width="5.74" height="16.12" rx="2.57" ry="2.57"/><path class="cls-47" d="M138.81,685.53h0a2.8,2.8,0,0,0,3.55-1.76h0v-.07l14.07-43.41a3,3,0,0,0-1.77-3.72h0a2.8,2.8,0,0,0-3.55,1.76h0v.07L137,681.83A3,3,0,0,0,138.81,685.53Z"/><rect class="cls-47" x="136.82" y="679.68" width="49.22" height="6.42" rx="3.15" ry="3.15"/><path class="cls-47" d="M184.4,685.59h0a2.76,2.76,0,0,1-3.52-1.68v-.08l-13.67-42.15A2.92,2.92,0,0,1,169,638h0a2.76,2.76,0,0,1,3.52,1.68v.08l13.67,42.13A2.92,2.92,0,0,1,184.4,685.59Z"/><path class="cls-50" d="M153.09,657H169.8l7,21.17H146.1Z"/><rect class="cls-47" x="150.88" y="626.16" width="5.88" height="15.38" rx="2.75" ry="2.75"/><rect class="cls-47" x="372.12" y="705.75" width="28.5" height="5.35" rx="2.62" ry="2.62"/><path class="cls-1" d="M381.92,711.25v10l-13.35,40.17,35.71.13-12.94-40.39-.07-9.83Z"/><rect class="cls-47" x="391.55" y="707.22" width="5.62" height="16.12" rx="2.54" ry="2.54"/><path class="cls-47" d="M364.28,767.48h0a2.8,2.8,0,0,0,3.55-1.76h0v-.07L382,722.21a3,3,0,0,0-1.77-3.72h0a2.8,2.8,0,0,0-3.55,1.76h0v.07L362.5,763.76A3,3,0,0,0,364.28,767.48Z"/><rect class="cls-47" x="362.3" y="761.63" width="49.22" height="6.42" rx="3.15" ry="3.15"/><path class="cls-47" d="M409.61,767.48h0a2.8,2.8,0,0,1-3.55-1.76h0v-.07L392,722.25a3,3,0,0,1,1.77-3.72h0a2.8,2.8,0,0,1,3.55,1.76h0v.07l14.08,43.39A3,3,0,0,1,409.61,767.48Z"/><path class="cls-51" d="M378.45,739h16.71l7,21.17H371.43Z"/><rect class="cls-47" x="376.36" y="708.11" width="5.88" height="15.38" rx="2.75" ry="2.75"/><path class="cls-52" d="M289.4,711.69c-8.33,7.1-12.13,17.94-9.74,28,3.07,13,15.66,21.33,28.27,21.13,11.16-.19,22.49-7.12,26.5-18.86a28.39,28.39,0,0,0-7.74-29.87"/><path class="cls-47" d="M321.67,736.51a6.51,6.51,0,1,0-6.51-6.51h0A6.52,6.52,0,0,0,321.67,736.51Zm0-10a3.5,3.5,0,1,1-3.5,3.5h0a3.51,3.51,0,0,1,3.5-3.52h0Z"/><path class="cls-47" d="M311.68,745a4.51,4.51,0,1,0-4.51-4.51h0A4.52,4.52,0,0,0,311.68,745Zm0-6a1.49,1.49,0,1,1-1.49,1.49h0a1.49,1.49,0,0,1,1.49-1.49Z"/><path class="cls-47" d="M339.85,707.59a41,41,0,0,0-20.08-14.13V673.37a3.72,3.72,0,0,0,3-3.62,4.11,4.11,0,0,0-3.39-3.91H295.71a4.11,4.11,0,0,0-3.39,3.91,3.72,3.72,0,0,0,3,3.62v20.08a40.7,40.7,0,1,0,52.92,38.88h0A40.3,40.3,0,0,0,339.85,707.59Zm-32.29,57c-18.49,0-31.87-16.17-32-32-.12-15.18,12-26.6,21.83-30.77a29.89,29.89,0,0,1,3.72-1.29L301,676.1l13.08-.24v24.55a32.53,32.53,0,0,1,3.72,1.49c9.26,4.3,21.89,15.5,21.8,30.77-.16,15.47-13.39,31.91-32,31.91Z"/><path class="cls-53" d="M51.65,710.63c0-1.22-.65-2.23-1.44-2.23H36.29c-.79,0-1.44,1-1.44,2.23s.62,2.19,1.41,2.23V755.5c0,5.39,3.14,9.77,7,9.77s7-4.39,7-9.77V712.85C51,712.83,51.65,711.85,51.65,710.63ZM49.19,755.5c0,4.57-2.66,8.3-6,8.3s-6-3.72-6-8.3V712.86h11.9Zm1-44.13H36.29c-.21,0-.38-.34-.38-.74s.17-.74.38-.74H50.21c.21,0,.38.34.38.74s-.17.75-.38.75Z"/><path class="cls-54" d="M36.26,734.21h14v25a8.43,8.43,0,0,1-3.68,6.69,8,8,0,0,1-3.32,1.1,8.39,8.39,0,0,1-3.72-1.49,8.18,8.18,0,0,1-3.17-6.23Z"/><path class="cls-53" d="M118,709.78c0-1.22-.65-2.23-1.44-2.23h-14c-.79,0-1.44,1-1.44,2.23s.62,2.19,1.41,2.23v42.65c0,5.39,3.14,9.77,7,9.77s7-4.39,7-9.77V712C117.33,712,118,711,118,709.78Zm-2.46,44.87c0,4.57-2.66,8.3-6,8.3s-6-3.72-6-8.3V712h11.9v42.65Zm1-44.13H102.6c-.21,0-.38-.34-.38-.74s.17-.74.38-.74h13.93c.21,0,.38.34.38.74s-.19.74-.39.74Z"/><path class="cls-1" d="M102.56,733.35h14v25a8.43,8.43,0,0,1-3.68,6.69,8,8,0,0,1-3.32,1.1,8.39,8.39,0,0,1-3.72-1.49,8.18,8.18,0,0,1-3.19-6.23Z"/><path class="cls-47" d="M46,756a2.68,2.68,0,1,0-2.68-2.68h0A2.68,2.68,0,0,0,46,756Zm0-4.11a1,1,0,1,1-.05,0H46Z"/><path class="cls-47" d="M41.85,759.46A1.85,1.85,0,1,0,40,757.6h0a1.85,1.85,0,0,0,1.84,1.86Zm0-2.48a.62.62,0,1,1-.62.62h0a.62.62,0,0,1,.62-.61Z"/><path class="cls-53" d="M83.55,709c0-1.22-.65-2.23-1.44-2.23H68.16c-.79,0-1.44,1-1.44,2.23s.62,2.19,1.41,2.23v42.65c0,5.39,3.14,9.77,7,9.77s7-4.39,7-9.77V711.25C82.89,711.23,83.55,710.24,83.55,709Zm-2.46,44.87c0,4.57-2.66,8.3-6,8.3s-6-3.72-6-8.3V711.25H81V753.9Zm1-44.13H68.16c-.21,0-.38-.34-.38-.74s.17-.74.38-.74h13.9c.21,0,.38.34.38.74s-.15.78-.38.78Z"/><path class="cls-47" d="M109.73,754.2a2.68,2.68,0,1,0-2.69,2.67h0a2.68,2.68,0,0,0,2.69-2.67Zm-1.23,0a1.44,1.44,0,1,1-1.44-1.44,1.44,1.44,0,0,1,1.44,1.44Z"/><path class="cls-47" d="M113,758.56a1.85,1.85,0,1,0-1.85,1.85h0A1.85,1.85,0,0,0,113,758.56Zm-1.2,0a.62.62,0,1,1-.62-.62h0a.62.62,0,0,1,.64.6v0Z"/><circle class="cls-49" cx="75.45" cy="747.83" r="15.96"/><rect class="cls-49" x="68.1" y="725.51" width="14.05" height="8.7"/><path class="cls-47" d="M78.6,689.45A7.44,7.44,0,1,0,71.16,682a7.44,7.44,0,0,0,7.44,7.45Zm0-11.43a4,4,0,1,1-4,4h0a4,4,0,0,1,4-4h0Z"/><path class="cls-47" d="M67.18,699.19a5.15,5.15,0,1,0-.07,0Zm0-6.84a1.73,1.73,0,1,1-1.73,1.73h0A1.73,1.73,0,0,1,67.18,692.35Z"/><path class="cls-47" d="M114.46,697.39a5.15,5.15,0,1,0-5.15-5.15,5.15,5.15,0,0,0,5.15,5.15Zm0-6.87a1.73,1.73,0,1,1-1.73,1.73h0A1.73,1.73,0,0,1,114.46,690.52Z"/><path class="cls-47" d="M155.47,620.59a9,9,0,1,0-9-9h0A9,9,0,0,0,155.47,620.59Zm0-13.9a4.87,4.87,0,1,1-4.87,4.87h0a4.87,4.87,0,0,1,4.87-4.86Z"/><path class="cls-47" d="M171.21,607.84a6.69,6.69,0,1,0-6.69-6.69h0a6.69,6.69,0,0,0,6.69,6.69Zm0-10.34a3.62,3.62,0,1,1-3.62,3.62h0A3.62,3.62,0,0,1,171.21,597.5Z"/><path class="cls-47" d="M156.85,594.4a4.32,4.32,0,1,0-4.32-4.32h0a4.32,4.32,0,0,0,4.32,4.32Zm0-6.64a2.33,2.33,0,1,1-2.33,2.33,2.33,2.33,0,0,1,2.33-2.33Z"/><line class="cls-55" x1="173.01" y1="649.2" x2="182.73" y2="639.49"/><line class="cls-55" x1="182.34" y1="575.69" x2="182.34" y2="640.45"/><path class="cls-56" d="M182.34,576a6.29,6.29,0,0,1,2.08-3.67,6.17,6.17,0,0,1,3-1.38"/><line class="cls-55" x1="187.05" y1="571" x2="242.61" y2="571"/><path class="cls-56" d="M247.38,566a6.29,6.29,0,0,1-2.08,3.67,6.17,6.17,0,0,1-3,1.38"/><line class="cls-55" x1="247.38" y1="566.28" x2="247.38" y2="554.11"/><path class="cls-56" d="M247.38,554.67a6.29,6.29,0,0,1,2.05-3.66,6.17,6.17,0,0,1,3-1.38"/><line class="cls-55" x1="252.13" y1="549.63" x2="302.57" y2="549.63"/><path class="cls-56" d="M307,554.67a6.29,6.29,0,0,0-2-3.67,6.17,6.17,0,0,0-3-1.38"/><line class="cls-55" x1="307.05" y1="554.11" x2="307.05" y2="665.82"/><path class="cls-47" d="M225.45,562.13h-1.36a6.08,6.08,0,0,0-6,6.09v11l-3.36.06a1.21,1.21,0,0,0-1.18,1.21,1.16,1.16,0,0,0,1.16,1.16h0l4.81-.08.1,25.66a5.13,5.13,0,0,0,2,4V614a3.21,3.21,0,0,0,3.21,3.21H225a3.29,3.29,0,0,0,2.31-1h0a3.3,3.3,0,0,0,.94-2.33v-2.81a5.37,5.37,0,0,0,.42-.39,5.28,5.28,0,0,0,1.49-3.72l-.06-25.63,4.81-.08a1.21,1.21,0,0,0,1.18-1.21,1.17,1.17,0,0,0-1.18-1.16h0l-3.36.06v-11a5.9,5.9,0,0,0-5.91-5.89h0Zm.43,51.86a.91.91,0,0,1-.26.64h0a.91.91,0,0,1-.63.28.89.89,0,0,1-.91-.86v-1.76a4.89,4.89,0,0,0,1.8,0Zm1.84-28.33h-1.25a1.21,1.21,0,0,0-1.18,1.21,1.16,1.16,0,0,0,1.16,1.16h1.28v2h-1.25a1.21,1.21,0,0,0-1.18,1.21,1.16,1.16,0,0,0,1.16,1.16h1.29v2H226.5a1.21,1.21,0,0,0-1.18,1.21,1.17,1.17,0,0,0,1.18,1.16h1.27v1.59l-5.68,5.81L222,581.51l5.71-.1Zm1.38-17.6v11l-8.6.16v-11a3.68,3.68,0,0,1,3.61-3.72h1.36a3.57,3.57,0,0,1,3.63,3.5Z"/><path class="cls-57" d="M222.1,604.21l5.68-5.82.1,8.7a2.87,2.87,0,0,1-2.73,2.92,2.09,2.09,0,0,1-.94-.1C222.75,609.38,221.91,607.09,222.1,604.21Z"/><rect class="cls-2" x="220.51" y="568.87" width="8.6" height="3.99"/><path class="cls-47" d="M221.25,573.54v3.8a1.16,1.16,0,0,0,1.16,1.16h0a1.21,1.21,0,0,0,1.18-1.21v-3.8a1.17,1.17,0,0,0-1.18-1.16h0A1.21,1.21,0,0,0,221.25,573.54Z"/><path class="cls-47" d="M221.29,569.74V570a1.17,1.17,0,0,0,1.17,1.17h0a1.21,1.21,0,0,0,1.18-1.2v-.28a1.17,1.17,0,0,0-1.17-1.17h0A1.21,1.21,0,0,0,221.29,569.74Z"/><line class="cls-55" x1="387.92" y1="597.01" x2="387.92" y2="708.72"/><line class="cls-55" x1="317.3" y1="595.85" x2="383.24" y2="595.85"/><path class="cls-56" d="M387.8,600.9a6.29,6.29,0,0,0-2.08-3.67,6.17,6.17,0,0,0-3-1.38"/><line class="cls-55" x1="313.64" y1="600.77" x2="313.64" y2="665.52"/><path class="cls-56" d="M313.64,601.12a6.29,6.29,0,0,1,2.08-3.67,6.17,6.17,0,0,1,3-1.38"/><rect class="cls-1" x="383.24" y="589.7" width="9.31" height="54.65"/><path class="cls-47" d="M395.71,626.89V586.24a7.71,7.71,0,0,0-15.41-.56q0,.28,0,.56v40.65a11.44,11.44,0,0,0-4,8.82,11.7,11.7,0,0,0,23.4,0A11.44,11.44,0,0,0,395.71,626.89ZM388,644.25a8.54,8.54,0,0,1-5.21-15.32l.65-.46V586.21a4.55,4.55,0,0,1,9.1,0v8.18H388v3.15h4.55v3.81H388v3.15h4.55v3.72H388v3.15h4.55V628.3l.65.46a8.49,8.49,0,0,1,3.34,6.78,8.62,8.62,0,0,1-8.51,8.73h0Z"/><path class="cls-58" d="M389.68,630.16V616.33H386v13.93a6,6,0,0,0-3.9,5.47,5.85,5.85,0,0,0,11.7,0A5.68,5.68,0,0,0,389.68,630.16Z"/></g><line class="cls-9" y1="826" x2="1033" y2="826"/><line class="cls-10" x1="560" y1="686.5" x2="1032" y2="686.5"/><rect class="cls-59" x="596" y="725" width="176" height="52.5" rx="12.65" ry="12.65"/><rect class="cls-60" x="595.5" y="720.5" width="177" height="47" rx="12" ry="12"/><rect class="cls-59" x="809" y="723" width="176" height="49.5" rx="12.28" ry="12.28"/><rect class="cls-60" x="808.5" y="722.5" width="177" height="47" rx="12" ry="12"/><g class="cls-3"><text class="cls-61" transform="translate(665.19 793.14) scale(0.95 1)">S</text><text class="cls-62" transform="translate(673.37 793.14) scale(0.95 1)">TA</text><text class="cls-63" transform="translate(687.11 793.14) scale(0.95 1)">TIC</text></g><text class="cls-63" transform="translate(879.19 789.75) scale(0.95 1)">PUSHED</text><text class="cls-64" transform="translate(156.9 112.56)">the elements style tile</text><text class="cls-65" transform="translate(557.68 244.77)">am<tspan class="cls-66" x="31.21" y="0">a</tspan><tspan x="42.12" y="0">tic sc, bold</tspan></text><text class="cls-67" transform="translate(700.26 482.51)">Periodic elements</text><text class="cls-68" transform="translate(556.04 322.86)">amatic sc, regular</text><text class="cls-69" transform="translate(555.69 347.41)">abcdefghijklmnopqrstuvwxyz</text><text class="cls-70" transform="translate(557.5 408.05)">Patrick hand, regular</text><text class="cls-71" transform="translate(556.79 430.64)">abcdefghijklmnopqrstuvwxyz </text><text class="cls-72" transform="translate(556.04 270.83)">abcdefghijklmnopq<tspan class="cls-73" x="143.12" y="0">r</tspan><tspan class="cls-74" x="150.04" y="0">stuvwxyz</tspan></text><text class="cls-67" transform="translate(740.3 183.84)">typography</text><text class="cls-67" transform="translate(189.06 487)">typography</text><text class="cls-67" transform="translate(173.06 183.84)">Colour Palette</text><text class="cls-67" transform="translate(748.05 678.02)">buttons</text><g class="cls-3"><text class="cls-4" transform="translate(666 757.04)">ENTER</text></g><g class="cls-3"><text class="cls-4" transform="translate(879.15 758.56)">ENTER</text></g></svg>