<svg xmlns="http://www.w3.org/2000/svg" viewBox="0 0 56 37"><defs><style>.cls-1{fill:#234247;}</style></defs><title>endquote</title><g id="Layer_2" data-name="Layer 2"><g id="Layer_1-2" data-name="Layer 1"><path class="cls-1" d="M25,2a2,2,0,0,0-2-2H2A2,2,0,0,0,0,2V20a2,2,0,0,0,2,2H12.2A6,6,0,0,1,7,25a2,2,0,0,0-2,2v8a2,2,0,0,0,2,2A18,18,0,0,0,25,19Z"/><path class="cls-1" d="M56,2a2,2,0,0,0-2-2H33a2,2,0,0,0-2,2V20a2,2,0,0,0,2,2H43.2A6,6,0,0,1,38,25a2,2,0,0,0-2,2v8a2,2,0,0,0,2,2A18,18,0,0,0,56,19Z"/></g></g></svg>