<svg xmlns="http://www.w3.org/2000/svg" viewBox="0 0 56 37"><defs><style>.cls-1{fill:#234247;}</style></defs><title>startquote</title><g id="Layer_2" data-name="Layer 2"><g id="Layer_1-2" data-name="Layer 1"><path class="cls-1" d="M31,35a2,2,0,0,0,2,2H54a2,2,0,0,0,2-2V17a2,2,0,0,0-2-2H43.8A6,6,0,0,1,49,12a2,2,0,0,0,2-2V2a2,2,0,0,0-2-2A18,18,0,0,0,31,18Z"/><path class="cls-1" d="M0,35a2,2,0,0,0,2,2H23a2,2,0,0,0,2-2V17a2,2,0,0,0-2-2H12.8A6,6,0,0,1,18,12a2,2,0,0,0,2-2V2a2,2,0,0,0-2-2A18,18,0,0,0,0,18Z"/></g></g></svg>